<?xml version="1.0"?>
<svg xmlns="http://www.w3.org/2000/svg" viewBox="0 0 64 64" width="512" height="512"><title>Brick-build-wall-industrial-construction</title><g id="FillOutline"><rect x="10" y="55" width="14" height="6" style="fill:#a25b40"/><rect x="24" y="55" width="7" height="6" style="fill:#a25b40"/><rect x="17" y="49" width="14" height="6" style="fill:#a25b40"/><rect x="10" y="43" width="14" height="6" style="fill:#a25b40"/><polyline points="31 49 24 49 24 43 38 43" style="fill:#a25b40"/><rect x="17" y="37" width="14" height="6" style="fill:#a25b40"/><rect x="31" y="37" width="7" height="6" style="fill:#a25b40"/><rect x="10" y="31" width="14" height="6" style="fill:#a25b40"/><rect x="24" y="31" width="14" height="6" style="fill:#a25b40"/><rect x="38" y="31" width="14" height="6" style="fill:#a25b40"/><rect x="17" y="25" width="14" height="6" style="fill:#a25b40"/><rect x="31" y="25" width="14" height="6" style="fill:#a25b40"/><rect x="3" y="25" width="14" height="6" style="fill:#a25b40"/><rect x="24" y="19" width="14" height="6" style="fill:#a25b40"/><rect x="38" y="19" width="14" height="6" style="fill:#a25b40"/><rect x="17" y="13" width="14" height="6" style="fill:#a25b40"/><rect x="31" y="13" width="14" height="6" style="fill:#a25b40"/><rect x="45" y="13" width="14" height="6" style="fill:#a25b40"/><polyline points="31 61 31 49 38 43 38 37 57 37 57 61" style="fill:#dde1e1"/><path d="M30,61V49a1,1,0,0,1,.349-.759L37,42.54V37a1,1,0,0,1,1-1H57a1,1,0,0,1,1,1V61Z" style="fill:#dde1e1"/><rect x="2" y="60" width="2" height="2"/><rect x="27" y="8" width="26" height="2"/><rect x="23" y="8" width="2" height="2"/><path d="M58,37a1,1,0,0,0-1-1H53V31a1,1,0,0,0-1-1H46V26h6a1,1,0,0,0,1-1V20h6a1,1,0,0,0,1-1V13a1,1,0,0,0-1-1H17a1,1,0,0,0-1,1v6a1,1,0,0,0,1,1h6v4H3a1,1,0,0,0-1,1v6a1,1,0,0,0,1,1H9v5a1,1,0,0,0,1,1h6v4H10a1,1,0,0,0-1,1v6a1,1,0,0,0,1,1h6v4H10a1,1,0,0,0-1,1v5H6v2H62V60H58ZM56,60H32V49.46l6.651-5.7c.009-.008.012-.02.021-.028a1,1,0,0,0,.178-.235,1.059,1.059,0,0,0,.062-.092A.993.993,0,0,0,39,43V38H56ZM25,44H35.3L30.63,48H25ZM18,26H30v4H18Zm7,6H37v4H25Zm7,6h5v4H32Zm19-2H39V32H51Zm-7-6H32V26H44Zm7-6H39V20H51Zm7-6H46V14H58ZM44,18H32V14H44ZM18,14H30v4H18Zm7,6H37v4H25ZM4,26H16v4H4Zm7,6H23v4H11Zm7,6H30v4H18Zm-7,6H23v4H11Zm7,6H30v4H18Zm-7,6H23v4H11Zm14,0h5v4H25Z"/><rect x="60" y="40" width="2" height="14"/></g></svg>
