<svg height="480pt" viewBox="0 -48 480 480" width="480pt" xmlns="http://www.w3.org/2000/svg"><path d="m240 120c-4.417969 0-8-3.582031-8-8v-32c0-4.417969 3.582031-8 8-8s8 3.582031 8 8v32c0 4.417969-3.582031 8-8 8zm0 0" fill="#b9b9b9"/><path d="m192 112h96l8 32h-112zm0 0" fill="#cbcbcb"/><path d="m200 80h-176c-8.835938 0-16-7.164062-16-16v-40c0-8.835938 7.164062-16 16-16h176zm0 0" fill="#a88e74"/><path d="m104 80h-80c-8.835938 0-16-7.164062-16-16v-40c0-8.835938 7.164062-16 16-16h80zm0 0" fill="#c1ac8e"/><path d="m432 224c-4.417969 0-8-3.582031-8-8v-32c0-4.417969-3.582031-8-8-8s-8 3.582031-8 8-3.582031 8-8 8-8-3.582031-8-8c0-13.253906 10.746094-24 24-24s24 10.746094 24 24v32c0 4.417969-3.582031 8-8 8zm0 0" fill="#cbcbcb"/><path d="m168 248h144v128h-144zm0 0" fill="#dbdbdb"/><path d="m40 152h64c17.671875 0 32 14.328125 32 32v160c0 17.671875-14.328125 32-32 32h-64c-17.671875 0-32-14.328125-32-32v-160c0-17.671875 14.328125-32 32-32zm0 0" fill="#8dc79d"/><path d="m136 232h-128v-48c0-17.671875 14.328125-32 32-32h64c17.671875 0 32 14.328125 32 32zm0 0" fill="#99d8aa"/><path d="m40 288c-4.417969 0-8-3.582031-8-8v-16c0-4.417969 3.582031-8 8-8s8 3.582031 8 8v16c0 4.417969-3.582031 8-8 8zm0 0" fill="#dbdbdb"/><path d="m40 208c-4.417969 0-8-3.582031-8-8v-16c0-4.417969 3.582031-8 8-8s8 3.582031 8 8v16c0 4.417969-3.582031 8-8 8zm0 0" fill="#dbdbdb"/><path d="m312 248h160v128h-160zm0 0" fill="#c1ac8e"/><path d="m200 280h80v64h-80zm0 0" fill="#c3c3c3"/><path d="m208 280h64v56h-64zm0 0" fill="#b9b9b9"/><path d="m176 216h48v8c0 13.253906-10.746094 24-24 24s-24-10.746094-24-24zm0 0" fill="#e06661"/><path d="m256 216h40v32h-40zm0 0" fill="#6cbae5"/><path d="m320 8h80v96h-80zm0 0" fill="#9a826a"/><path d="m400 64h-80c-4.417969 0-8-3.582031-8-8s3.582031-8 8-8h80c4.417969 0 8 3.582031 8 8s-3.582031 8-8 8zm0 0" fill="#a88e74"/><path d="m312 248h80v128h-80zm0 0" fill="#c1ac8e"/><path d="m392 248h80v128h-80zm0 0" fill="#a88e74"/><path d="m368 312c-4.417969 0-8-3.582031-8-8v-8c0-4.417969 3.582031-8 8-8s8 3.582031 8 8v8c0 4.417969-3.582031 8-8 8zm0 0" fill="#cbcbcb"/><path d="m424 312c-4.417969 0-8-3.582031-8-8v-8c0-4.417969 3.582031-8 8-8s8 3.582031 8 8v8c0 4.417969-3.582031 8-8 8zm0 0" fill="#cbcbcb"/><path d="m344 216h96v32h-96zm0 0" fill="#ebebeb"/><g fill="#fbedbf"><path d="m240 192c-4.417969 0-8-3.582031-8-8v-8c0-4.417969 3.582031-8 8-8s8 3.582031 8 8v8c0 4.417969-3.582031 8-8 8zm0 0"/><path d="m272 192c-4.417969 0-8-3.582031-8-8v-8c0-4.417969 3.582031-8 8-8s8 3.582031 8 8v8c0 4.417969-3.582031 8-8 8zm0 0"/><path d="m304 192c-4.417969 0-8-3.582031-8-8v-8c0-4.417969 3.582031-8 8-8s8 3.582031 8 8v8c0 4.417969-3.582031 8-8 8zm0 0"/></g><path d="m40 40h32v40h-32zm0 0" fill="#f7ba61"/><path d="m176 80h-48l24-40zm0 0" fill="#ffc5c3"/><path d="m200 8h120v72h-120zm0 0" fill="#c1ac8e"/><path d="m232 56c-4.417969 0-8-3.582031-8-8v-8c0-4.417969 3.582031-8 8-8s8 3.582031 8 8v8c0 4.417969-3.582031 8-8 8zm0 0" fill="#cbcbcb"/><path d="m400 8h56c8.835938 0 16 7.164062 16 16v64c0 8.835938-7.164062 16-16 16h-56zm0 0" fill="#c1ac8e"/><path d="m432 64c-4.417969 0-8-3.582031-8-8v-8c0-4.417969 3.582031-8 8-8s8 3.582031 8 8v8c0 4.417969-3.582031 8-8 8zm0 0" fill="#cbcbcb"/><path d="m144 344v-160c-.027344-22.082031-17.917969-39.972656-40-40h-64c-22.082031.027344-39.9726562 17.917969-40 40v160c.0273438 22.082031 17.917969 39.972656 40 40h64c22.082031-.027344 39.972656-17.917969 40-40zm-128-160c0-13.253906 10.746094-24 24-24h64c13.253906 0 24 10.746094 24 24v40h-112zm0 160v-104h112v104c0 13.253906-10.746094 24-24 24h-64c-13.253906 0-24-10.746094-24-24zm0 0"/><path d="m40 256c-4.417969 0-8 3.582031-8 8v16c0 4.417969 3.582031 8 8 8s8-3.582031 8-8v-16c0-4.417969-3.582031-8-8-8zm0 0"/><path d="m40 176c-4.417969 0-8 3.582031-8 8v16c0 4.417969 3.582031 8 8 8s8-3.582031 8-8v-16c0-4.417969-3.582031-8-8-8zm0 0"/><path d="m280 272h-80c-4.417969 0-8 3.582031-8 8v64c0 4.417969 3.582031 8 8 8h80c4.417969 0 8-3.582031 8-8v-64c0-4.417969-3.582031-8-8-8zm-8 64h-64v-48h64zm0 0"/><path d="m456 0h-432c-13.253906 0-24 10.746094-24 24v40c0 13.253906 10.746094 24 24 24h208v16h-40c-3.671875 0-6.871094 2.5-7.761719 6.0625l-8 32c-.59375 2.390625-.058593 4.921875 1.457031 6.863281 1.515626 1.9375 3.84375 3.074219 6.304688 3.074219h112c2.460938 0 4.789062-1.136719 6.304688-3.074219 1.515624-1.941406 2.050781-4.472656 1.457031-6.863281l-8-32c-.890625-3.5625-4.089844-6.0625-7.761719-6.0625h-40v-16h64v16c0 4.417969 3.582031 8 8 8h136c13.253906 0 24-10.746094 24-24v-64c0-13.253906-10.746094-24-24-24zm-392 72h-16v-24h16zm32 0h-16v-32c0-4.417969-3.582031-8-8-8h-32c-4.417969 0-8 3.582031-8 8v32h-8c-4.417969 0-8-3.582031-8-8v-40c0-4.417969 3.582031-8 8-8h72zm46.128906 0 9.871094-16.457031 9.871094 16.457031zm49.871094 0h-11.472656l-21.671875-36.121094c-1.550781-2.257812-4.117188-3.605468-6.855469-3.605468s-5.304688 1.347656-6.855469 3.605468l-21.671875 36.121094h-11.472656v-56h80zm89.753906 48 4 16h-91.507812l4-16zm30.246094-48h-104v-56h104zm80 24h-64v-32h64zm0-48h-64v-32h64zm72 40c0 4.417969-3.582031 8-8 8h-48v-80h48c4.417969 0 8 3.582031 8 8zm0 0"/><path d="m432 40c-4.417969 0-8 3.582031-8 8v8c0 4.417969 3.582031 8 8 8s8-3.582031 8-8v-8c0-4.417969-3.582031-8-8-8zm0 0"/><path d="m232 56c4.417969 0 8-3.582031 8-8v-8c0-4.417969-3.582031-8-8-8s-8 3.582031-8 8v8c0 4.417969 3.582031 8 8 8zm0 0"/><path d="m472 240h-24v-24c0-4.417969-3.582031-8-8-8v-24c0-13.253906-10.746094-24-24-24s-24 10.746094-24 24c0 4.417969 3.582031 8 8 8s8-3.582031 8-8 3.582031-8 8-8 8 3.582031 8 8v24h-80c-4.417969 0-8 3.582031-8 8v24h-32v-24c0-4.417969-3.582031-8-8-8h-40c-4.417969 0-8 3.582031-8 8v24h-20.449219c2.878907-4.84375 4.417969-10.367188 4.449219-16v-8c0-4.417969-3.582031-8-8-8h-48c-4.417969 0-8 3.582031-8 8v8c.03125 5.632812 1.570312 11.15625 4.449219 16h-4.449219c-4.417969 0-8 3.582031-8 8v128c0 4.417969 3.582031 8 8 8h304c4.417969 0 8-3.582031 8-8v-128c0-4.417969-3.582031-8-8-8zm-208-16h24v16h-24zm-48 0c0 8.835938-7.164062 16-16 16s-16-7.164062-16-16zm88 144h-128v-112h128zm80 0h-64v-112h64zm-32-128v-16h80v16zm112 128h-64v-112h64zm0 0"/><path d="m368 312c4.417969 0 8-3.582031 8-8v-8c0-4.417969-3.582031-8-8-8s-8 3.582031-8 8v8c0 4.417969 3.582031 8 8 8zm0 0"/><path d="m424 288c-4.417969 0-8 3.582031-8 8v8c0 4.417969 3.582031 8 8 8s8-3.582031 8-8v-8c0-4.417969-3.582031-8-8-8zm0 0"/><path d="m248 184v-8c0-4.417969-3.582031-8-8-8s-8 3.582031-8 8v8c0 4.417969 3.582031 8 8 8s8-3.582031 8-8zm0 0"/><path d="m280 184v-8c0-4.417969-3.582031-8-8-8s-8 3.582031-8 8v8c0 4.417969 3.582031 8 8 8s8-3.582031 8-8zm0 0"/><path d="m312 184v-8c0-4.417969-3.582031-8-8-8s-8 3.582031-8 8v8c0 4.417969 3.582031 8 8 8s8-3.582031 8-8zm0 0"/></svg>