<?xml version="1.0"?>
<svg xmlns="http://www.w3.org/2000/svg" viewBox="0 0 64 64" width="512" height="512"><g id="outline"><path d="M61,10H47V9a1,1,0,0,0-1-1H42a1,1,0,0,0-1,1v1H23V9a1,1,0,0,0-1-1H18a1,1,0,0,0-1,1v1H3a1,1,0,0,0-1,1V53a1,1,0,0,0,1,1H17v1a1,1,0,0,0,1,1h4a1,1,0,0,0,1-1V54H41v1a1,1,0,0,0,1,1h4a1,1,0,0,0,1-1V54H61a1,1,0,0,0,1-1V11A1,1,0,0,0,61,10ZM17,52H4V12H17Zm4,2H19V10h2Zm20-2H23V12H41Zm4,2H43V10h2Zm15-2H47V12H60Z"/><rect x="6" y="18" width="4" height="2"/><rect x="10" y="24" width="4" height="2"/><rect x="7" y="31" width="4" height="2"/><rect x="6" y="44" width="4" height="2"/><rect x="49" y="24" width="4" height="2"/><rect x="52" y="31" width="4" height="2"/><rect x="53" y="39" width="4" height="2"/><rect x="53" y="47" width="4" height="2"/><rect x="31" y="43" width="4" height="2"/><rect x="26" y="19" width="4" height="2"/><rect x="33" y="22" width="4" height="2"/><rect x="33" y="32" width="4" height="2"/><rect x="26" y="37" width="4" height="2"/><path d="M32,15a3,3,0,1,0,3-3A3,3,0,0,0,32,15Zm3-1a1,1,0,1,1-1,1A1,1,0,0,1,35,14Z"/><path d="M28,26a3,3,0,1,0,3,3A3,3,0,0,0,28,26Zm0,4a1,1,0,1,1,1-1A1,1,0,0,1,28,30Z"/><path d="M9,38a3,3,0,1,0,3-3A3,3,0,0,0,9,38Zm4,0a1,1,0,1,1-1-1A1,1,0,0,1,13,38Z"/><path d="M55,20a3,3,0,1,0-3-3A3,3,0,0,0,55,20Zm0-4a1,1,0,1,1-1,1A1,1,0,0,1,55,16Z"/></g></svg>
