<svg width="100%" height="100%" xmlns="http://www.w3.org/2000/svg" version="1.1">
  <rect width="100%" height="100%" fill="rgb(255,224,149)"></rect>
  <path d="M 104 647 l 5000 0 A 5000 5000 0 0 1 4933.629131445342 1941.0952255126037 z" fill="rgb(228,147,126)" />
  <path d="M 104 647 l 4330.127018922193 2499.9999999999995 A 5000 5000 0 0 1 3639.533905932738 4182.533905932738 z" fill="rgb(228,147,126)" />
  <path d="M 104 647 l 2500.0000000000005 4330.127018922193 A 5000 5000 0 0 1 1398.0952255126037 5476.629131445342 z" fill="rgb(228,147,126)" />
  <path d="M 104 647 l 3.061616997868383e-13 5000 A 5000 5000 0 0 1 -1190.095225512603 5476.629131445342 z" fill="rgb(228,147,126)" />
  <path d="M 104 647 l -2499.999999999999 4330.127018922193 A 5000 5000 0 0 1 -3431.5339059327375 4182.533905932738 z" fill="rgb(228,147,126)" />
  <path d="M 104 647 l -4330.127018922193 2499.9999999999995 A 5000 5000 0 0 1 -4725.629131445341 1941.095225512605 z" fill="rgb(228,147,126)" />
  <path d="M 104 647 l -5000 6.123233995736766e-13 A 5000 5000 0 0 1 -4725.629131445342 -647.095225512604 z" fill="rgb(228,147,126)" />
  <path d="M 104 647 l -4330.127018922194 -2499.9999999999986 A 5000 5000 0 0 1 -3431.5339059327393 -2888.5339059327357 z" fill="rgb(228,147,126)" />
  <path d="M 104 647 l -2500.0000000000023 -4330.127018922192 A 5000 5000 0 0 1 -1190.095225512603 -4182.629131445342 z" fill="rgb(228,147,126)" />
  <path d="M 104 647 l -9.18485099360515e-13 -5000 A 5000 5000 0 0 1 1398.0952255126015 -4182.629131445342 z" fill="rgb(228,147,126)" />
  <path d="M 104 647 l 2500.0000000000005 -4330.127018922193 A 5000 5000 0 0 1 3639.5339059327366 -2888.5339059327384 z" fill="rgb(228,147,126)" />
  <path d="M 104 647 l 4330.127018922192 -2500.0000000000023 A 5000 5000 0 0 1 4933.62913144534 -647.0952255126078 z" fill="rgb(228,147,126)" /></svg>
